# xmcd
#
# Track frame offsets:
#	150
#	24448
#	44322
#	76200
#	89408
#	118015
#	140205
#	162496
#	184393
#	207273
#	225999
#	246865
#	277239
#	309494
#
# Disc length: 4268 seconds
#
# Revision: 0
# Processed by: cddbd v1.5.1PL2 Copyright (c) Steve Scherf et al.
# Submitted via: dBpowerAMP V4.0
#
DISCID=c610aa0e
DTITLE=mana - unplugged
DYEAR=1900
DGENRE=
TTITLE0=cachito
TTITLE1=mariposa traicionera
TTITLE2=mariposa traicionera
TTITLE3=celoso
TTITLE4=tu eres mi religion
TTITLE5=nose
TTITLE6=nose 2
TTITLE7=nose 3
TTITLE8=nose 4
TTITLE9=a
TTITLE10=aa
TTITLE11=aaaa
TTITLE12=aaaa
TTITLE13=aaa
EXTD=my name is jesus and i need this program for doing an important grabation
EXTT0=
EXTT1=
EXTT2=
EXTT3=
EXTT4=
EXTT5=
EXTT6=
EXTT7=
EXTT8=
EXTT9=
EXTT10=
EXTT11=
EXTT12=
EXTT13=
PLAYORDER=
